<svg fill="#f36" role="img" viewBox="0 0 24 24" xmlns="http://www.w3.org/2000/svg"><title>AngelList</title><path d="M16.465 13.04c.635-3.516-1.253-5.467-4.79-5.467-3.705 0-6.496 2.736-6.496 6.398 0 3.844 2.908 6.08 6.496 6.08 3.148 0 5.114-1.714 5.476-3.572h-2.818c-.235.714-.996 1.446-2.658 1.446-1.765 0-2.83-.94-3.12-2.35h8.91zm-8.831 1.334c.235-1.307 1.15-2.572 3.025-2.572 1.858 0 2.771 1.265 2.998 2.572H7.634zm10.59-6.336l-2.442 5.856h2.59l2.442-5.856h-2.59zM5.622 8.038H2.98l-.044 10.06h2.686V8.038zm18.378 15.9V0H0v24h24z"/></svg>