<svg fill="#4B53BC" role="img" viewBox="0 0 24 24" xmlns="http://www.w3.org/2000/svg"><title>Microsoft Teams</title><path d="M20.625 8.49V4.511a1.687 1.687 0 0 0-1.687-1.688c-.443 0-.873.174-1.198.49l-.14.14a3.06 3.06 0 0 0-.595.794c-.335-.124-.69-.19-1.055-.19a3.37 3.37 0 0 0-2.37.98 3.37 3.37 0 0 0-.98 2.37c0 .823.296 1.59.816 2.182a3.43 3.43 0 0 0 2.534 1.107c.365 0 .72-.066 1.055-.19.17.295.382.568.63.81l.14.14c.32.317.753.495 1.196.495a1.687 1.687 0 0 0 1.687-1.688V8.49h.468zm-5.156 2.475c-.754 0-1.406-.42-1.758-1.033a2.06 2.06 0 0 1 0-2.12 2.046 2.046 0 0 1 1.758-1.033c.754 0 1.406.42 1.758 1.033a2.06 2.06 0 0 1 0 2.12 2.046 2.046 0 0 1-1.758 1.033z"/><path d="M17.1 1.5H4.9c-.635 0-1.213.26-1.63.68-.418.42-.656 1-.656 1.635v10.37c0 .635.238 1.215.656 1.635.417.42.995.68 1.63.68h4.248l-1.992 3.32a.75.75 0 0 0 1.286.77l2.19-3.65 2.19 3.65a.75.75 0 1 0 1.286-.77l-1.992-3.32h2.024c.635 0 1.213-.26 1.63-.68.418-.42.656-1 .656-1.635V3.815c0-.635-.238-1.215-.656-1.635-.417-.42-.995-.68-1.63-.68zM5.699 6.908a.75.75 0 0 1 .75-.75h3.098a.75.75 0 0 1 0 1.5H6.449a.75.75 0 0 1-.75-.75zm0 2.905a.75.75 0 0 1 .75-.75h5.602a.75.75 0 0 1 0 1.5H6.449a.75.75 0 0 1-.75-.75z"/></svg>