<svg width="145" height="56" viewBox="0 0 145 56" fill="none" xmlns="http://www.w3.org/2000/svg">
<path d="M0 0H26.3529V26.3529H0V0Z" fill="black"/>
<path d="M29.6471 0H56V26.3529H29.6471V0Z" fill="black"/>
<path d="M59.2941 0H85.6471V26.3529H59.2941V0Z" fill="black"/>
<path d="M0 29.6475H26.3529V56.0004H0V29.6475Z" fill="#3E59C0"/>
<path d="M29.6471 29.6475H56V56.0004H29.6471V29.6475Z" fill="#3E59C0"/>
<path d="M59.2941 29.6475H85.6471V56.0004H59.2941V29.6475Z" fill="#3E59C0"/>
<path d="M88.9412 29.6475H115.294V56.0004H88.9412V29.6475Z" fill="#3E59C0"/>
<path d="M118.588 29.6475H144.941V56.0004H118.588V29.6475Z" fill="#3E59C0"/>
<path d="M18.4362 15.9407C18.4362 16.6775 18.2902 17.3 17.998 17.8081C17.7058 18.3035 17.3183 18.7037 16.8356 19.0086C16.3529 19.3135 15.8003 19.5358 15.1778 19.6755C14.568 19.8025 13.9392 19.8661 13.2913 19.8661H7.91772V6.375H13.2913C13.8122 6.375 14.3457 6.43217 14.892 6.5465C15.4382 6.64813 15.9337 6.83233 16.3783 7.0991C16.8229 7.35317 17.185 7.70252 17.4644 8.14714C17.7439 8.59176 17.8836 9.15706 17.8836 9.84305C17.8836 10.5925 17.6804 11.215 17.2739 11.7104C16.8674 12.1932 16.3338 12.5425 15.6732 12.7585V12.7966C16.0543 12.8601 16.41 12.9808 16.7403 13.1586C17.0833 13.3238 17.3755 13.5397 17.6169 13.8065C17.8709 14.0733 18.0678 14.3845 18.2076 14.7402C18.36 15.0959 18.4362 15.4961 18.4362 15.9407ZM14.7395 10.2813C14.7395 9.82399 14.5617 9.4937 14.206 9.29045C13.863 9.07449 13.3485 8.96651 12.6625 8.96651H11.0619V11.7485H12.815C13.4247 11.7485 13.8948 11.6279 14.225 11.3865C14.568 11.1324 14.7395 10.764 14.7395 10.2813ZM15.1778 15.6358C15.1778 15.0769 14.9682 14.6894 14.549 14.4734C14.1298 14.2575 13.5708 14.1495 12.8721 14.1495H11.0619V17.2364H12.8912C13.1453 17.2364 13.4057 17.2174 13.6724 17.1793C13.9519 17.1285 14.1996 17.0459 14.4156 16.9316C14.6443 16.8172 14.8285 16.6584 14.9682 16.4552C15.1079 16.2392 15.1778 15.9661 15.1778 15.6358Z" fill="white"/>
<path d="M50.4293 13.0641C50.4293 14.1312 50.2451 15.1094 49.8767 15.9986C49.5083 16.8751 48.9938 17.631 48.3332 18.2662C47.6853 18.8886 46.9104 19.3714 46.0085 19.7144C45.1065 20.0574 44.1284 20.2288 43.074 20.2288C42.0196 20.2288 41.0414 20.0574 40.1395 19.7144C39.2502 19.3714 38.4753 18.8886 37.8147 18.2662C37.1669 17.631 36.6587 16.8751 36.2903 15.9986C35.9219 15.1094 35.7377 14.1312 35.7377 13.0641C35.7377 11.9843 35.9219 11.0125 36.2903 10.1486C36.6587 9.27211 37.1669 8.52896 37.8147 7.91919C38.4753 7.30943 39.2502 6.8394 40.1395 6.50911C41.0414 6.17882 42.0196 6.01367 43.074 6.01367C44.1284 6.01367 45.1065 6.17882 46.0085 6.50911C46.9104 6.8394 47.6853 7.30943 48.3332 7.91919C48.9938 8.52896 49.5083 9.27211 49.8767 10.1486C50.2451 11.0125 50.4293 11.9843 50.4293 13.0641ZM46.9422 13.0641C46.9422 12.4797 46.8469 11.9335 46.6564 11.4253C46.4658 10.9172 46.199 10.4853 45.856 10.1296C45.5257 9.76119 45.1192 9.47537 44.6365 9.27211C44.1665 9.05615 43.6456 8.94817 43.074 8.94817C42.5023 8.94817 41.9815 9.05615 41.5115 9.27211C41.0414 9.47537 40.6349 9.76119 40.2919 10.1296C39.9489 10.4853 39.6822 10.9172 39.4916 11.4253C39.3138 11.9335 39.2248 12.4797 39.2248 13.0641C39.2248 13.6739 39.3201 14.2392 39.5107 14.76C39.7012 15.2681 39.9616 15.7064 40.2919 16.0748C40.6349 16.4432 41.0414 16.7354 41.5115 16.9514C41.9815 17.1546 42.5023 17.2562 43.074 17.2562C43.6456 17.2562 44.1665 17.1546 44.6365 16.9514C45.1065 16.7354 45.513 16.4432 45.856 16.0748C46.199 15.7064 46.4658 15.2681 46.6564 14.76C46.8469 14.2392 46.9422 13.6739 46.9422 13.0641Z" fill="white"/>
<path d="M75.0649 19.8661L72.1113 15.1023L69.2721 19.8661H65.3848L70.1105 12.7394L65.7659 6.375H69.6913L72.2066 10.5671L74.6838 6.375H78.4758L74.2074 12.7394L79.0855 19.8661H75.0649Z" fill="white"/>
<path d="M19.3143 48.6949C18.6537 49.0379 17.8788 49.3173 16.9895 49.5333C16.113 49.7493 15.1539 49.8572 14.1122 49.8572C13.0324 49.8572 12.0352 49.6857 11.1205 49.3427C10.2186 48.9998 9.4373 48.517 8.77672 47.8946C8.12885 47.2721 7.62071 46.5289 7.25231 45.6651C6.88391 44.7886 6.69971 43.8167 6.69971 42.7497C6.69971 41.6699 6.88391 40.6917 7.25231 39.8151C7.63341 38.9386 8.15425 38.1955 8.81483 37.5857C9.47542 36.9632 10.2503 36.4868 11.1396 36.1566C12.0288 35.8263 12.9879 35.6611 14.0169 35.6611C15.084 35.6611 16.0749 35.8263 16.9895 36.1566C17.9042 36.4741 18.6473 36.9061 19.219 37.4523L17.161 39.7961C16.8434 39.4277 16.4242 39.1292 15.9034 38.9005C15.3825 38.6591 14.7918 38.5385 14.1312 38.5385C13.5596 38.5385 13.0324 38.6464 12.5497 38.8624C12.0669 39.0656 11.6477 39.3578 11.292 39.7389C10.9363 40.1073 10.6568 40.5519 10.4536 41.0728C10.263 41.5809 10.1678 42.1399 10.1678 42.7497C10.1678 43.3721 10.2567 43.9438 10.4345 44.4646C10.6124 44.9855 10.8728 45.4364 11.2158 45.8175C11.5715 46.1859 12.0034 46.4781 12.5115 46.6941C13.0324 46.8973 13.6231 46.999 14.2837 46.999C14.6648 46.999 15.0268 46.9736 15.3698 46.9227C15.7128 46.8592 16.0304 46.7639 16.3226 46.6369V44.1788H13.7501V41.5492H19.3143V48.6949Z" fill="white"/>
<path d="M44.7867 49.5126L41.8713 44.1581H40.7661V49.5126H37.5648V36.0215H42.7097C43.3576 36.0215 43.9864 36.0914 44.5962 36.2312C45.2187 36.3582 45.7713 36.5805 46.254 36.8981C46.7494 37.2157 47.1432 37.6349 47.4354 38.1557C47.7276 38.6766 47.8737 39.3245 47.8737 40.0994C47.8737 41.014 47.626 41.7826 47.1305 42.405C46.6351 43.0275 45.9491 43.4721 45.0726 43.7389L48.5978 49.5126H44.7867ZM44.6534 40.1565C44.6534 39.8389 44.5835 39.5849 44.4438 39.3943C44.3167 39.1911 44.1452 39.0386 43.9293 38.937C43.726 38.8227 43.491 38.7464 43.2242 38.7083C42.9702 38.6702 42.7224 38.6512 42.4811 38.6512H40.747V41.7953H42.2905C42.5573 41.7953 42.8304 41.7762 43.1099 41.7381C43.3894 41.6873 43.6434 41.6047 43.8721 41.4904C44.1008 41.3761 44.285 41.2109 44.4247 40.995C44.5771 40.779 44.6534 40.4995 44.6534 40.1565Z" fill="white"/>
<path d="M80.0764 42.7115C80.0764 43.7786 79.8922 44.7568 79.5238 45.646C79.1554 46.5226 78.6409 47.2784 77.9803 47.9136C77.3324 48.5361 76.5575 49.0188 75.6556 49.3618C74.7536 49.7048 73.7755 49.8763 72.7211 49.8763C71.6667 49.8763 70.6885 49.7048 69.7866 49.3618C68.8973 49.0188 68.1224 48.5361 67.4618 47.9136C66.814 47.2784 66.3058 46.5226 65.9374 45.646C65.569 44.7568 65.3848 43.7786 65.3848 42.7115C65.3848 41.6317 65.569 40.6599 65.9374 39.7961C66.3058 38.9196 66.814 38.1764 67.4618 37.5666C68.1224 36.9569 68.8973 36.4868 69.7866 36.1566C70.6885 35.8263 71.6667 35.6611 72.7211 35.6611C73.7755 35.6611 74.7536 35.8263 75.6556 36.1566C76.5575 36.4868 77.3324 36.9569 77.9803 37.5666C78.6409 38.1764 79.1554 38.9196 79.5238 39.7961C79.8922 40.6599 80.0764 41.6317 80.0764 42.7115ZM76.5893 42.7115C76.5893 42.1272 76.494 41.5809 76.3035 41.0728C76.1129 40.5647 75.8461 40.1327 75.5031 39.777C75.1729 39.4086 74.7663 39.1228 74.2836 38.9196C73.8136 38.7036 73.2927 38.5956 72.7211 38.5956C72.1494 38.5956 71.6286 38.7036 71.1586 38.9196C70.6885 39.1228 70.282 39.4086 69.939 39.777C69.596 40.1327 69.3293 40.5647 69.1387 41.0728C68.9609 41.5809 68.8719 42.1272 68.8719 42.7115C68.8719 43.3213 68.9672 43.8866 69.1578 44.4075C69.3483 44.9156 69.6087 45.3539 69.939 45.7223C70.282 46.0907 70.6885 46.3828 71.1586 46.5988C71.6286 46.8021 72.1494 46.9037 72.7211 46.9037C73.2927 46.9037 73.8136 46.8021 74.2836 46.5988C74.7536 46.3828 75.1601 46.0907 75.5031 45.7223C75.8461 45.3539 76.1129 44.9156 76.3035 44.4075C76.494 43.8866 76.5893 43.3213 76.5893 42.7115Z" fill="white"/>
<path d="M107.816 44.4249C107.816 45.2379 107.677 45.9811 107.397 46.6544C107.13 47.3149 106.743 47.8866 106.235 48.3693C105.727 48.8393 105.111 49.2077 104.387 49.4745C103.675 49.7413 102.881 49.8747 102.005 49.8747C101.115 49.8747 100.315 49.7413 99.6037 49.4745C98.8923 49.2077 98.2889 48.8393 97.7934 48.3693C97.298 47.8866 96.9169 47.3149 96.6501 46.6544C96.3833 45.9811 96.2499 45.2379 96.2499 44.4249V36.0215H99.4893V44.1581C99.4893 44.5265 99.5338 44.8759 99.6227 45.2062C99.7243 45.5364 99.8704 45.835 100.061 46.1017C100.264 46.3558 100.525 46.5591 100.842 46.7115C101.173 46.864 101.566 46.9402 102.024 46.9402C102.481 46.9402 102.868 46.864 103.186 46.7115C103.516 46.5591 103.783 46.3558 103.986 46.1017C104.19 45.835 104.336 45.5364 104.425 45.2062C104.514 44.8759 104.558 44.5265 104.558 44.1581V36.0215H107.816V44.4249Z" fill="white"/>
<path d="M136.739 40.1756C136.739 40.9632 136.593 41.6301 136.3 42.1764C136.008 42.7099 135.614 43.1418 135.119 43.4721C134.624 43.8024 134.052 44.0438 133.404 44.1962C132.756 44.3487 132.083 44.4249 131.384 44.4249H129.764V49.5126H126.506V36.0215H131.46C132.197 36.0215 132.883 36.0978 133.518 36.2502C134.166 36.3899 134.725 36.625 135.195 36.9553C135.678 37.2728 136.053 37.6984 136.319 38.232C136.599 38.7528 136.739 39.4007 136.739 40.1756ZM133.48 40.1946C133.48 39.8771 133.417 39.6166 133.29 39.4134C133.163 39.2101 132.991 39.0513 132.775 38.937C132.559 38.8227 132.312 38.7464 132.032 38.7083C131.765 38.6702 131.486 38.6512 131.194 38.6512H129.764V41.8334H131.136C131.441 41.8334 131.734 41.808 132.013 41.7572C132.292 41.7063 132.54 41.6174 132.756 41.4904C132.985 41.3634 133.163 41.1982 133.29 40.995C133.417 40.779 133.48 40.5122 133.48 40.1946Z" fill="white"/>
</svg>
