<svg xmlns="http://www.w3.org/2000/svg" viewBox="0 0 80 24" fill="currentColor" aria-labelledby="forbesTitle">
  <title id="forbesTitle">Forbes</title>
  <path d="M0 2.4h10.8c4.2 0 7.2 3 7.2 7.2s-3 7.2-7.2 7.2H4.2v2.4H0V2.4zm4.2 3.6v6h5.4c1.8 0 3-1.2 3-3s-1.2-3-3-3H4.2zm15 7.2c0-3.6 2.4-6 6-6s6 2.4 6 6-2.4 6-6 6-6-2.4-6-6zm2.4 0c0 2.4 1.2 3.6 3.6 3.6s3.6-1.2 3.6-3.6-1.2-3.6-3.6-3.6-3.6 1.2-3.6 3.6zm13.2-6h2.4v2.4h-2.4v7.8c0 1.2.6 1.8 1.8 1.8h.6v2.4h-1.2c-2.4 0-3.6-1.2-3.6-3.6v-8.4h-2.4V6.6h2.4V3h2.4v3.6zm7.2 0h2.4v12h-2.4v-12zm0-4.2h2.4v2.4h-2.4V2.4zm7.2 4.2c0-1.2 0-2.4.6-3h2.4v2.4h.6c.6-1.2 1.8-2.4 3.6-2.4h.6v2.4h-.6c-2.4 0-3.6 1.8-3.6 4.2v6.6h-2.4V6.6h-1.2zm10.2 6c0 2.4 1.2 3.6 3.6 3.6 1.8 0 3-.6 4.2-1.8l1.8 1.8c-1.2 1.2-3 2.4-6 2.4-4.2 0-6-3-6-6s2.4-6 6-6c3 0 5.4 2.4 5.4 6v.6h-8.4l-.6-.6zm6-2.4c0-1.8-1.2-3-3-3s-3 1.2-3 3h6z"/>
</svg>
