<svg xmlns="http://www.w3.org/2000/svg" viewBox="0 0 120 24" fill="currentColor" aria-labelledby="producthuntTitle">
  <title id="producthuntTitle">Product Hunt</title>
  <path d="M6 2.4h6c4.8 0 8.4 3.6 8.4 8.4s-3.6 8.4-8.4 8.4H6V2.4zm3.6 3.6v9.6h2.4c2.4 0 4.8-2.4 4.8-4.8s-2.4-4.8-4.8-4.8H9.6zM20.4 12c0-4.2 3-7.8 7.8-7.8s7.8 3.6 7.8 7.8-3 7.8-7.8 7.8-7.8-3.6-7.8-7.8zm3.6 0c0 2.4 1.8 4.2 4.2 4.2s4.2-1.8 4.2-4.2-1.8-4.2-4.2-4.2-4.2 1.8-4.2 4.2zm15.6 3.6V6.6h-2.4V4.2h2.4V2.4c0-1.8 1.2-3 3-3h1.8v2.4h-1.2c-.6 0-1.2.6-1.2 1.2v1.2h3.6v2.4h-3.6v9h-2.4v-.6zm8.4 0V6.6h-2.4V4.2h2.4V2.4c0-1.8 1.2-3 3-3h1.8v2.4h-1.2c-.6 0-1.2.6-1.2 1.2v1.2h3.6v2.4h-3.6v9h-2.4v-.6zm10.8-9c0-1.2 0-2.4.6-3h2.4v2.4h.6c.6-1.2 1.8-2.4 3.6-2.4h.6v2.4h-.6c-2.4 0-3.6 1.8-3.6 4.2v6.6h-2.4V6.6h-1.2zm10.2 3c0-3 2.4-5.4 5.4-5.4 1.8 0 3 .6 4.2 1.8l-1.8 1.8c-.6-.6-1.2-1.2-2.4-1.2-1.2 0-2.4 1.2-2.4 2.4h6v2.4h-6c0 1.8 1.2 2.4 2.4 2.4 1.2 0 2.4-.6 3-1.2l1.8 1.8c-1.2 1.2-2.4 1.8-4.8 1.8-3 0-5.4-2.4-5.4-5.4zm13.2-3h2.4v2.4h.6c.6-1.2 1.8-2.4 3.6-2.4h.6v2.4h-.6c-2.4 0-3.6 1.8-3.6 4.2v6.6h-2.4v-13.2h-1.2zm14.4 3.6c-.6 0-1.2-.6-1.2-1.2s.6-1.2 1.2-1.2 1.2.6 1.2 1.2-.6 1.2-1.2 1.2zm-1.2 2.4h2.4v9h-2.4v-9zm10.2 0c0-1.2 0-2.4.6-3h2.4v2.4h.6c.6-1.2 1.8-2.4 3.6-2.4h.6v2.4h-.6c-2.4 0-3.6 1.8-3.6 4.2v6.6h-2.4v-10.2h-1.2zm13.8-3c0-.6.6-1.2 1.2-1.2s1.2.6 1.2 1.2-.6 1.2-1.2 1.2-1.2-.6-1.2-1.2zm2.4 3h-2.4v9h2.4v-9z"/>
</svg>
