<svg xmlns="http://www.w3.org/2000/svg" viewBox="0 0 120 24" fill="currentColor" aria-labelledby="techcrunchTitle">
  <title id="techcrunchTitle">TechCrunch</title>
  <path d="M0 2.4h10.8c4.2 0 6.6 2.4 6.6 6.6 0 3.6-2.4 6-5.4 6.6l6 6.6h-4.8l-5.4-6.6H4.2v6.6H0V2.4zm4.2 3.6v6h5.4c2.4 0 3.6-1.2 3.6-3s-1.2-3-3.6-3H4.2zm16.2-3.6h4.2v19.2h-4.2V2.4zm6.6 9.6c0-5.4 4.2-9.6 9.6-9.6s9.6 4.2 9.6 9.6-4.2 9.6-9.6 9.6-9.6-4.2-9.6-9.6zm4.2 0c0 3 2.4 5.4 5.4 5.4s5.4-2.4 5.4-5.4-2.4-5.4-5.4-5.4-5.4 2.4-5.4 5.4zm16.2-9.6h9.6c3 0 5.4 1.2 5.4 4.2 0 1.8-1.2 3-2.4 3.6 1.8.6 3 2.4 3 4.2 0 3-2.4 4.2-5.4 4.2h-10.2V2.4zm4.2 3.6v3.6h4.8c1.2 0 1.8-.6 1.8-1.8s-.6-1.8-1.8-1.8h-4.8zm0 6.6v4.2h5.4c1.2 0 1.8-.6 1.8-2.1s-.6-2.1-1.8-2.1h-5.4zm16.8-10.2h4.2v19.2h-4.2V2.4zM87 12c0-5.4 4.2-9.6 9.6-9.6s9.6 4.2 9.6 9.6-4.2 9.6-9.6 9.6S87 17.4 87 12zm4.2 0c0 3 2.4 5.4 5.4 5.4s5.4-2.4 5.4-5.4-2.4-5.4-5.4-5.4S91.2 9 91.2 12z"/>
</svg>
