<svg xmlns="http://www.w3.org/2000/svg" viewBox="0 0 24 24" fill="currentColor" width="24" height="24">
  <path d="M12 2C6.5 2 2 6.5 2 12s4.5 10 10 10 10-4.5 10-10S17.5 2 12 2zm0 3c1.7 0 3 1.3 3 3 0 .6-.2 1.1-.5 1.5.9.4 1.5 1.3 1.5 2.3 0 1-.6 1.9-1.5 2.3.3.4.5.9.5 1.5 0 1.7-1.3 3-3 3s-3-1.3-3-3c0-.6.2-1.1.5-1.5-.9-.4-1.5-1.3-1.5-2.3 0-1 .6-1.9 1.5-2.3-.3-.4-.5-.9-.5-1.5 0-1.7 1.3-3 3-3zm0 1.5c-.8 0-1.5.7-1.5 1.5s.7 1.5 1.5 1.5 1.5-.7 1.5-1.5-.7-1.5-1.5-1.5zm0 5c-.8 0-1.5.7-1.5 1.5s.7 1.5 1.5 1.5 1.5-.7 1.5-1.5-.7-1.5-1.5-1.5z"/>
</svg>
