<svg xmlns="http://www.w3.org/2000/svg" viewBox="0 0 24 24" fill="currentColor" width="24" height="24">
  <rect x="2" y="2" width="20" height="20" rx="3" fill="currentColor"/>
  <path d="M7 18.5c-.8 0-1.5-.2-2-.6v-1.3c.6.5 1.3.8 2 .8.6 0 1-.2 1-.6 0-.3-.2-.5-.7-.7l-1-.4c-1.2-.5-1.7-1.1-1.7-2 0-1.1.9-1.9 2.3-1.9.7 0 1.4.2 1.9.5v1.3c-.5-.4-1.1-.6-1.8-.6-.6 0-.9.2-.9.5 0 .3.2.4.7.6l1 .4c1.2.5 1.7 1.1 1.7 2 0 1.2-1 2-2.5 2zm7.5 0c-1.8 0-3-1.2-3-3.3V8.5h1.5v6.7c0 1.1.6 1.7 1.5 1.7s1.5-.6 1.5-1.7V8.5H17v6.7c0 2.1-1.2 3.3-3 3.3z" fill="white"/>
</svg>
