<svg xmlns="http://www.w3.org/2000/svg" viewBox="0 0 24 24" fill="currentColor" width="24" height="24">
  <path d="M4 9c-.6 0-1 .4-1 1v5c0 .6.4 1 1 1h2c1.7 0 3-1.3 3-3s-1.3-3-3-3H4zm1 2h1c.6 0 1 .4 1 1s-.4 1-1 1H5v-2z"/>
  <path d="M10 9c-.6 0-1 .4-1 1v5c0 .6.4 1 1 1h2c1.7 0 3-1.3 3-3s-1.3-3-3-3h-2zm1 2h1c.6 0 1 .4 1 1s-.4 1-1 1h-1v-2z"/>
  <path d="M16 9c-.6 0-1 .4-1 1v5c0 .6.4 1 1 1h2c.6 0 1-.4 1-1v-1h-2v1h-1v-4h1v1h2v-1c0-.6-.4-1-1-1h-2z"/>
  <path d="M8 4c-.6 0-1 .4-1 1v2h2V6h4c.6 0 1-.4 1-1s-.4-1-1-1H8z"/>
  <path d="M16 4c-.6 0-1 .4-1 1v2h2V6h2c.6 0 1-.4 1-1s-.4-1-1-1h-3z"/>
</svg>
