<svg xmlns="http://www.w3.org/2000/svg" viewBox="0 0 24 24" fill="currentColor" width="24" height="24">
  <ellipse cx="12" cy="12" rx="10" ry="6" fill="currentColor"/>
  <path d="M6.5 10c-.8 0-1.5.4-1.5 1.2 0 .5.3.9.8 1.1-.3.2-.5.5-.5.9 0 .6.5 1 1.2 1 .3 0 .5-.1.7-.2-.2.2-.3.5-.3.8 0 .7.6 1.2 1.4 1.2h3.7c.8 0 1.4-.5 1.4-1.2 0-.3-.1-.6-.3-.8.2.1.4.2.7.2.7 0 1.2-.4 1.2-1 0-.4-.2-.7-.5-.9.5-.2.8-.6.8-1.1 0-.8-.7-1.2-1.5-1.2H6.5zm5 1.5h2c.3 0 .5.2.5.5s-.2.5-.5.5h-2c-.3 0-.5-.2-.5-.5s.2-.5.5-.5zm-3 1.5h2c.3 0 .5.2.5.5s-.2.5-.5.5h-2c-.3 0-.5-.2-.5-.5s.2-.5.5-.5z" fill="white"/>
</svg>
